<svg width="174" height="33" viewBox="0 0 174 33" fill="none" xmlns="http://www.w3.org/2000/svg">
<path d="M30.7287 18.5001C32.704 14.7371 28.6889 12.1275 23.4393 10.8477C23.8343 9.95002 23.9487 8.77491 22.835 7.65291C21.4067 6.21689 22.356 4.125 22.356 4.125C22.356 4.125 19.3581 6.8903 21.251 8.79708C21.9491 9.49988 22.3127 10.1171 22.4864 10.6332C21.0372 10.3345 19.5698 10.1323 18.0938 10.0279C18.5347 8.82956 18.5775 7.32445 17.1884 5.88328C15.2867 3.90792 16.5531 1.03125 16.5531 1.03125C16.5531 1.03125 12.5555 4.83347 15.0795 7.45491C16.0009 8.41088 16.4861 9.25238 16.7212 9.95775C15.1568 9.91083 13.6512 9.97941 12.3137 10.1666C12.473 9.39572 12.34 8.50936 11.4897 7.65342C10.0614 6.21741 11.0112 4.125 11.0112 4.125C11.0112 4.125 8.01283 6.8903 9.9062 8.79708C10.4992 9.39417 10.8467 9.92733 11.0462 10.3919C10.8204 10.4414 10.6013 10.495 10.3904 10.5533C3.87184 9.94331 1.02868 11.2901 2.32754 13.9322C0.0608569 16.1989 0.912669 18.7858 3.74912 20.7652C5.22897 26.8605 5.61001 31.9688 16.7558 31.9688C26.7011 31.9688 28.0753 27.9005 29.3071 22.6937C33.0031 21.9579 32.2157 20.1862 30.7287 18.5001V18.5001ZM29.8073 17.8912C28.5692 20.5312 23.1964 22.5184 16.7558 22.5184C10.3156 22.5184 4.94279 20.5312 3.70426 17.8912C3.67797 17.8128 3.6527 17.7313 3.62743 17.6519C4.21731 16.1556 6.1344 14.8572 8.827 13.9879C8.19433 14.5994 8.06284 15.5126 9.72779 15.8328C10.2042 15.9246 11.5124 15.6069 10.9405 13.9838C10.8606 13.7569 10.7302 13.6048 10.5698 13.513C12.4199 13.0897 14.52 12.8458 16.7558 12.8458C17.0064 12.8458 17.2523 12.8545 17.4993 12.8602C16.2092 13.3181 15.1568 14.7288 17.7911 15.1449C18.3728 15.2367 19.9697 14.9191 19.2715 13.2959C19.2105 13.1512 19.1127 13.025 18.9879 12.9298C21.4562 13.1113 23.6925 13.5867 25.5002 14.272C23.9106 14.1833 22.1471 15.163 24.9712 16.5423C25.5771 16.8383 27.4179 17.11 27.1647 15.3177C27.1464 15.1882 27.1007 15.0641 27.0306 14.9536C28.4759 15.7152 29.484 16.6387 29.8836 17.6519L29.8073 17.8912Z" fill="white"/>
<path d="M13.3222 18.9961C14.9892 18.9961 16.1009 17.4889 16.9718 16.899C18.1887 16.074 21.2484 15.7523 18.5537 15.6873C15.9978 15.626 12.8422 17.7008 10.7333 17.558C7.24145 17.3208 10.8178 18.9961 13.3222 18.9961V18.9961ZM16.9244 22.0754C17.5132 22.1888 19.1318 21.7959 18.4238 19.7886C17.6241 17.5173 12.7829 21.2782 16.9244 22.0754ZM7.75862 17.1074C7.19607 16.3133 6.38035 15.3063 6.04262 15.8307C5.58114 16.5479 5.43573 17.9911 5.77089 18.0551C8.39851 18.5588 8.21443 17.7503 7.75862 17.1074V17.1074ZM23.034 17.4291C23.5079 16.8423 22.5617 15.43 21.9543 15.677C21.0035 16.0637 20.4554 15.8018 20.0377 16.3886C19.0596 17.7627 22.39 18.2257 23.034 17.4291ZM22.738 19.1106C22.0564 18.8099 22.2173 19.817 21.2102 19.009C20.4894 18.4304 18.9384 19.8897 19.9614 20.8807C21.0999 21.9836 21.4031 20.9354 21.8816 21.0235C22.8541 21.2024 24.5262 19.8995 22.738 19.1106ZM11.4036 19.455C11.0483 19.1054 10.5719 19.5272 10.3027 20.0418C10.0361 19.9108 9.81906 19.8804 9.81906 19.8804C9.61539 19.2998 9.00953 18.9017 9.00953 18.9017C9.00953 18.9017 9.0647 19.5055 9.14462 19.7999C8.47534 19.5622 8.45471 18.366 8.45471 18.366C8.45471 18.366 8.0056 18.6346 8.04634 19.091C7.30951 18.4964 6.682 18.7744 6.682 18.7744C6.682 18.7744 7.61682 19.3003 7.74573 19.6551C7.22082 19.6958 6.91454 19.8773 6.73614 20.2996C6.73665 20.3032 7.77357 19.8061 8.54082 20.165C8.23815 20.4125 8.38871 21.0307 8.38871 21.0307C9.10285 20.2738 9.67314 20.3548 10.1295 20.4904C10.0743 20.7219 10.0779 20.9333 10.1759 21.0617C10.9674 22.1022 13.7244 21.8681 14.4648 21.0988C15.3615 20.1681 12.87 20.8982 11.4036 19.455" fill="white"/>
<path d="M13.3511 15.5358C13.1165 16.0071 13.1149 16.3629 13.3861 16.7331C13.3898 16.7342 13.4955 15.5895 14.1972 15.1151C14.2545 15.5018 14.8619 15.6895 14.8619 15.6895C14.3761 13.9694 15.7941 13.8797 15.7874 13.2625C15.0356 13.3259 14.6087 13.8724 14.6087 13.8724C14.0059 13.7492 13.3526 14.0642 13.3526 14.0642C13.3526 14.0642 13.8997 14.3267 14.1931 14.4097C13.6455 14.8619 12.6081 14.2653 12.6081 14.2653C12.6081 14.2653 12.6081 14.7892 13.0206 14.9877C12.1321 15.3152 12.0486 15.9958 12.0486 15.9958C12.0486 15.9958 12.9798 15.4642 13.3511 15.5358V15.5358ZM26.5258 17.885C26.7393 17.4797 26.4278 17.0585 26.4278 17.0585C26.4278 17.0585 25.9488 18.1552 25.2398 18.1176C25.4265 17.8763 25.7101 17.34 25.7101 17.34C25.7101 17.34 24.9975 17.4756 24.586 17.933C24.586 17.933 23.9178 17.7479 23.2763 18.1439C23.6383 18.644 24.8315 17.8721 25.4641 19.5438C25.4641 19.5438 25.8406 19.0318 25.6565 18.6868C26.5031 18.6502 27.2693 19.5072 27.2719 19.5041C27.2688 19.0452 27.0564 18.7606 26.5867 18.5213C26.8424 18.2434 27.9077 18.1171 27.9077 18.1171C27.9077 18.1171 27.4354 17.6195 26.5258 17.885" fill="white"/>
<path d="M44.0725 15.3984C44.0725 13.6016 44.5282 12.1745 45.4397 11.1172C46.3512 10.0599 47.6663 9.53125 49.385 9.53125C50.3746 9.53125 51.2131 9.6849 51.9006 9.99219C52.5881 10.2995 53.0725 10.7448 53.3538 11.3281C53.5413 11.7135 53.51 11.974 53.26 12.1094L52.3225 12.6094C51.9944 12.7865 51.7236 12.6875 51.51 12.3125C51.3746 12.0729 51.122 11.8568 50.7522 11.6641C50.3876 11.4714 49.9579 11.375 49.4631 11.375C48.3694 11.375 47.6038 11.7214 47.1663 12.4141C46.7288 13.1016 46.51 14.0964 46.51 15.3984C46.51 16.7005 46.7288 17.6979 47.1663 18.3906C47.6038 19.0781 48.3694 19.4219 49.4631 19.4219C50.0517 19.4219 50.5465 19.2891 50.9475 19.0234C51.3538 18.7578 51.635 18.5052 51.7913 18.2656C52.0465 17.875 52.3173 17.776 52.6038 17.9688L53.5413 18.5938C53.7965 18.7656 53.8225 19.026 53.6194 19.375C53.3173 19.8958 52.7991 20.3411 52.0647 20.7109C51.3303 21.0807 50.4371 21.2656 49.385 21.2656C47.6923 21.2656 46.3824 20.737 45.4553 19.6797C44.5334 18.6224 44.0725 17.1953 44.0725 15.3984ZM55.1038 16.8984C55.1038 15.5703 55.4449 14.5286 56.1272 13.7734C56.8147 13.0182 57.8355 12.6406 59.1897 12.6406C60.5439 12.6406 61.5621 13.0182 62.2444 13.7734C62.9319 14.5286 63.2756 15.5703 63.2756 16.8984C63.2756 18.2266 62.9319 19.2682 62.2444 20.0234C61.5621 20.7786 60.5439 21.1562 59.1897 21.1562C57.8355 21.1562 56.8147 20.7786 56.1272 20.0234C55.4449 19.2682 55.1038 18.2266 55.1038 16.8984ZM57.4163 16.8984C57.4163 17.888 57.5673 18.5911 57.8694 19.0078C58.1767 19.4193 58.6168 19.625 59.1897 19.625C59.7626 19.625 60.2001 19.4193 60.5022 19.0078C60.8095 18.5911 60.9631 17.888 60.9631 16.8984C60.9631 15.9089 60.8095 15.2083 60.5022 14.7969C60.2001 14.3802 59.7626 14.1719 59.1897 14.1719C58.6168 14.1719 58.1767 14.3802 57.8694 14.7969C57.5673 15.2083 57.4163 15.9089 57.4163 16.8984ZM65.4319 21C65.1194 21 64.9631 20.8438 64.9631 20.5312V13.2656C64.9631 12.9531 65.1194 12.7969 65.4319 12.7969H66.6663C66.9788 12.7969 67.135 12.9531 67.135 13.2656V13.7188H67.1663C67.3173 13.3854 67.5725 13.1224 67.9319 12.9297C68.2913 12.737 68.6272 12.6406 68.9397 12.6406C69.5647 12.6406 70.0491 12.7865 70.3928 13.0781C70.7418 13.3698 70.9814 13.6953 71.1116 14.0547H71.1428C71.5959 13.4661 72.0048 13.0833 72.3694 12.9062C72.7392 12.7292 73.2105 12.6406 73.7834 12.6406C74.5543 12.6406 75.2027 12.8958 75.7288 13.4062C76.26 13.9167 76.5256 14.849 76.5256 16.2031V20.5312C76.5256 20.8438 76.3694 21 76.0569 21H74.8069C74.4944 21 74.3381 20.8438 74.3381 20.5312V16.7656C74.3381 15.6302 74.26 14.9141 74.1038 14.6172C73.9527 14.3203 73.6819 14.1719 73.2913 14.1719C72.9267 14.1719 72.5933 14.3854 72.2913 14.8125C71.9892 15.2396 71.8381 16.1198 71.8381 17.4531V20.5312C71.8381 20.8438 71.6819 21 71.3694 21H70.1194C69.8069 21 69.6506 20.8438 69.6506 20.5312V16.7656C69.6506 15.6302 69.5725 14.9141 69.4163 14.6172C69.2652 14.3203 68.9944 14.1719 68.6038 14.1719C68.2392 14.1719 67.9058 14.3854 67.6038 14.8125C67.3017 15.2344 67.1506 16.1146 67.1506 17.4531V20.5312C67.1506 20.8438 66.9944 21 66.6819 21H65.4319ZM78.1975 18.8125C78.1975 17.7708 78.6949 17.0156 79.6897 16.5469C80.6845 16.0781 81.8199 15.8281 83.0959 15.7969V15.4844C83.0959 15.0052 82.9762 14.6667 82.7366 14.4688C82.497 14.2708 82.1637 14.1719 81.7366 14.1719C81.4345 14.1719 81.1663 14.2161 80.9319 14.3047C80.7027 14.388 80.5022 14.487 80.3303 14.6016C80.1637 14.7109 80.0126 14.8229 79.8772 14.9375C79.6376 15.1458 79.4397 15.1562 79.2834 14.9688L78.635 14.1719C78.4736 13.974 78.5126 13.7708 78.7522 13.5625C78.9345 13.401 79.1454 13.2604 79.385 13.1406C79.6298 13.0208 79.9527 12.9089 80.3538 12.8047C80.7548 12.6953 81.2756 12.6406 81.9163 12.6406C82.9996 12.6406 83.8303 12.8906 84.4084 13.3906C84.9918 13.8906 85.2834 14.6276 85.2834 15.6016V20.5312C85.2834 20.8438 85.1272 21 84.8147 21H83.5334C83.2522 21 83.1116 20.8438 83.1116 20.5312V20.2969H83.0959C82.7887 20.5938 82.4189 20.8125 81.9866 20.9531C81.5595 21.0885 81.1663 21.1562 80.8069 21.1562C79.9527 21.1562 79.3043 20.9479 78.8616 20.5312C78.4189 20.1094 78.1975 19.5365 78.1975 18.8125ZM80.51 18.7656C80.51 18.9479 80.5465 19.1068 80.6194 19.2422C80.6923 19.3724 80.8069 19.4688 80.9631 19.5312C81.1194 19.5938 81.2939 19.625 81.4866 19.625C81.7522 19.625 82.01 19.5885 82.26 19.5156C82.51 19.4427 82.7887 19.2708 83.0959 19V17.3047C82.2209 17.4036 81.635 17.5312 81.3381 17.6875C81.0413 17.8438 80.8277 18.0052 80.6975 18.1719C80.5725 18.3385 80.51 18.5365 80.51 18.7656ZM87.885 21C87.5725 21 87.4163 20.8438 87.4163 20.5312V13.2656C87.4163 12.9531 87.5725 12.7969 87.885 12.7969H89.1194C89.4319 12.7969 89.5881 12.9531 89.5881 13.2656V13.7188H89.6194C89.859 13.3073 90.1637 13.026 90.5334 12.875C90.9032 12.7188 91.3486 12.6406 91.8694 12.6406C92.6819 12.6406 93.3538 12.8958 93.885 13.4062C94.4163 13.9167 94.6819 14.849 94.6819 16.2031V20.5312C94.6819 20.8438 94.5256 21 94.2131 21H92.9631C92.6506 21 92.4944 20.8438 92.4944 20.5312V16.7656C92.4944 15.6302 92.4163 14.9141 92.26 14.6172C92.1038 14.3203 91.7678 14.1719 91.2522 14.1719C90.7053 14.1719 90.2939 14.3854 90.0178 14.8125C89.7418 15.2344 89.6038 16.1146 89.6038 17.4531V20.5312C89.6038 20.8438 89.4475 21 89.135 21H87.885ZM96.3538 16.8984C96.3538 15.7526 96.6012 14.7578 97.0959 13.9141C97.5959 13.0651 98.4579 12.6406 99.6819 12.6406C100.151 12.6406 100.552 12.7083 100.885 12.8438C101.218 12.9792 101.52 13.2708 101.791 13.7188H101.823C101.802 13.5104 101.791 13.3021 101.791 13.0938V9.9375C101.791 9.625 101.948 9.46875 102.26 9.46875H103.51C103.823 9.46875 103.979 9.625 103.979 9.9375V20.5312C103.979 20.8438 103.823 21 103.51 21H102.276C102.015 21 101.875 20.8438 101.854 20.5312L101.823 20.0781H101.791C101.52 20.526 101.218 20.8177 100.885 20.9531C100.552 21.0885 100.151 21.1562 99.6819 21.1562C98.4579 21.1562 97.5959 20.7344 97.0959 19.8906C96.6012 19.0417 96.3538 18.0443 96.3538 16.8984ZM98.6663 16.8984C98.6663 17.7318 98.773 18.3958 98.9866 18.8906C99.2053 19.3802 99.6663 19.625 100.369 19.625C100.76 19.625 101.093 19.4062 101.369 18.9688C101.651 18.526 101.791 17.9531 101.791 17.25V16.5469C101.791 15.8438 101.651 15.2734 101.369 14.8359C101.093 14.3932 100.76 14.1719 100.369 14.1719C99.6663 14.1719 99.2053 14.4193 98.9866 14.9141C98.773 15.4036 98.6663 16.0651 98.6663 16.8984ZM106.838 21C106.474 21 106.291 20.8047 106.291 20.4141V10.3828C106.291 9.99219 106.474 9.79688 106.838 9.79688H113.018C113.408 9.79688 113.604 9.96615 113.604 10.3047V11.2266C113.604 11.5651 113.408 11.7344 113.018 11.7344H108.573V14.4531H112.377C112.768 14.4531 112.963 14.6224 112.963 14.9609V15.8828C112.963 16.2214 112.768 16.3906 112.377 16.3906H108.573V20.4141C108.573 20.8047 108.39 21 108.026 21H106.838ZM114.854 18.8125C114.854 17.7708 115.351 17.0156 116.346 16.5469C117.341 16.0781 118.476 15.8281 119.752 15.7969V15.4844C119.752 15.0052 119.632 14.6667 119.393 14.4688C119.153 14.2708 118.82 14.1719 118.393 14.1719C118.091 14.1719 117.823 14.2161 117.588 14.3047C117.359 14.388 117.158 14.487 116.987 14.6016C116.82 14.7109 116.669 14.8229 116.533 14.9375C116.294 15.1458 116.096 15.1562 115.94 14.9688L115.291 14.1719C115.13 13.974 115.169 13.7708 115.408 13.5625C115.591 13.401 115.802 13.2604 116.041 13.1406C116.286 13.0208 116.609 12.9089 117.01 12.8047C117.411 12.6953 117.932 12.6406 118.573 12.6406C119.656 12.6406 120.487 12.8906 121.065 13.3906C121.648 13.8906 121.94 14.6276 121.94 15.6016V20.5312C121.94 20.8438 121.783 21 121.471 21H120.19C119.908 21 119.768 20.8438 119.768 20.5312V20.2969H119.752C119.445 20.5938 119.075 20.8125 118.643 20.9531C118.216 21.0885 117.823 21.1562 117.463 21.1562C116.609 21.1562 115.961 20.9479 115.518 20.5312C115.075 20.1094 114.854 19.5365 114.854 18.8125ZM117.166 18.7656C117.166 18.9479 117.203 19.1068 117.276 19.2422C117.349 19.3724 117.463 19.4688 117.619 19.5312C117.776 19.5938 117.95 19.625 118.143 19.625C118.408 19.625 118.666 19.5885 118.916 19.5156C119.166 19.4427 119.445 19.2708 119.752 19V17.3047C118.877 17.4036 118.291 17.5312 117.994 17.6875C117.698 17.8438 117.484 18.0052 117.354 18.1719C117.229 18.3385 117.166 18.5365 117.166 18.7656ZM123.635 16.8984C123.635 15.5703 123.968 14.5286 124.635 13.7734C125.302 13.0182 126.325 12.6406 127.705 12.6406C128.513 12.6406 129.14 12.7474 129.588 12.9609C130.036 13.1745 130.395 13.487 130.666 13.8984C130.828 14.1432 130.802 14.3359 130.588 14.4766L129.76 15.0234C129.526 15.1797 129.32 15.1198 129.143 14.8438C129.054 14.7083 128.885 14.5625 128.635 14.4062C128.385 14.25 128.075 14.1719 127.705 14.1719C127.117 14.1719 126.677 14.3802 126.385 14.7969C126.093 15.2083 125.948 15.9089 125.948 16.8984C125.948 17.888 126.093 18.5911 126.385 19.0078C126.677 19.4193 127.117 19.625 127.705 19.625C128.127 19.625 128.468 19.5365 128.729 19.3594C128.989 19.1823 129.234 18.9531 129.463 18.6719C129.661 18.4323 129.869 18.3984 130.088 18.5703L130.815 19.1406C131.033 19.3125 131.046 19.5417 130.854 19.8281C130.651 20.1302 130.304 20.4271 129.815 20.7188C129.33 21.0104 128.627 21.1562 127.705 21.1562C126.325 21.1562 125.302 20.7786 124.635 20.0234C123.968 19.2682 123.635 18.2266 123.635 16.8984ZM133.026 21C132.713 21 132.557 20.8438 132.557 20.5312V13.2656C132.557 12.9531 132.713 12.7969 133.026 12.7969H134.276C134.588 12.7969 134.744 12.9531 134.744 13.2656V20.5312C134.744 20.8438 134.588 21 134.276 21H133.026ZM133.026 11.5938C132.713 11.5938 132.557 11.4375 132.557 11.125V10.125C132.557 9.8125 132.713 9.65625 133.026 9.65625H134.276C134.588 9.65625 134.744 9.8125 134.744 10.125V11.125C134.744 11.4375 134.588 11.5938 134.276 11.5938H133.026ZM137.338 21C137.026 21 136.869 20.8438 136.869 20.5312V11.3047C136.869 11.0703 136.924 10.8568 137.033 10.6641L137.635 9.60938C137.75 9.41146 137.885 9.3125 138.041 9.3125H138.588C138.901 9.3125 139.057 9.46875 139.057 9.78125V20.5312C139.057 20.8438 138.901 21 138.588 21H137.338Z" fill="white"/>
</svg>
